<svg width="10" height="12" viewBox="0 0 10 12" fill="none" xmlns="http://www.w3.org/2000/svg">
<g clip-path="url(#clip0_2_1578)">
<path d="M8.48292 0.9341C7.93862 0.303027 6.95472 0.0324707 5.69601 0.0324707H2.04288C1.91834 0.0324754 1.79789 0.077671 1.70318 0.159932C1.60847 0.242193 1.54572 0.356123 1.5262 0.481239L0.00510693 10.2945C-0.0251274 10.488 0.122177 10.6632 0.31499 10.6632H2.5703L3.13671 7.00876L3.11913 7.1232C3.15948 6.86488 3.37667 6.67435 3.63386 6.67435H4.70558C6.81097 6.67435 8.45952 5.80447 8.94108 3.28809C8.95538 3.21366 8.96776 3.14123 8.97847 3.07046C8.91769 3.03772 8.91769 3.03772 8.97847 3.07046C9.12187 2.14038 8.97749 1.50728 8.48292 0.9341Z" fill="#27346A"/>
<path d="M3.99968 2.73541C4.06133 2.70555 4.12877 2.69007 4.19706 2.69011H7.06104C7.40019 2.69011 7.71651 2.71256 8.00558 2.75989C8.08646 2.77301 8.16693 2.78867 8.24687 2.80685C8.36016 2.83229 8.47215 2.86341 8.58241 2.90011C8.72452 2.94839 8.85686 3.00462 8.97851 3.07046C9.12187 2.14002 8.97749 1.50728 8.48292 0.9341C7.93831 0.303027 6.95472 0.0324707 5.69601 0.0324707H2.04257C1.78534 0.0324707 1.56651 0.222961 1.5262 0.481239L0.00510714 10.2941C-0.0251272 10.488 0.122177 10.663 0.314677 10.663H2.5703L3.74542 3.0827C3.75697 3.00819 3.78615 2.93765 3.83044 2.87716C3.87473 2.81666 3.93281 2.76802 3.99968 2.73541Z" fill="#27346A"/>
<path d="M8.94131 3.28794C8.45974 5.80397 6.81123 6.67421 4.7058 6.67421H3.63377C3.37658 6.67421 3.15935 6.86474 3.11939 7.12305L2.41474 11.667C2.38841 11.8363 2.51716 11.9898 2.6856 11.9898H4.58677C4.69568 11.9897 4.801 11.9502 4.8838 11.8782C4.96659 11.8063 5.02143 11.7066 5.03845 11.5972L5.05697 11.4986L5.41529 9.1886L5.43837 9.06093C5.45539 8.95152 5.51023 8.85187 5.59302 8.77991C5.6758 8.70795 5.78112 8.66839 5.89002 8.66835H6.17455C8.01623 8.66835 9.4583 7.90727 9.8797 5.7061C10.0556 4.78623 9.96459 4.01823 9.49927 3.47879C9.35814 3.3154 9.18287 3.18046 8.97869 3.07031C8.96763 3.14144 8.95564 3.21352 8.94131 3.28794Z" fill="#2790C3"/>
<path d="M8.47467 2.86593C8.39958 2.84363 8.32378 2.82388 8.2474 2.80672C8.16743 2.78884 8.08696 2.77328 8.00611 2.76008C7.71674 2.71243 7.40064 2.68994 7.06119 2.68994H4.19756C4.12922 2.68978 4.06173 2.7054 4.00018 2.7356C3.93323 2.7681 3.87509 2.81672 3.83078 2.87723C3.78647 2.93774 3.75733 3.00833 3.74588 3.08288L3.13721 7.00863L3.11963 7.12307C3.15967 6.86475 3.37686 6.67422 3.63408 6.67422H4.70611C6.8115 6.67422 8.46002 5.80434 8.94158 3.28796C8.95592 3.21353 8.96795 3.14141 8.979 3.07033C8.85705 3.00484 8.72506 2.94826 8.58291 2.9003C8.54704 2.8882 8.51097 2.87675 8.47471 2.86593" fill="#1F264F"/>
</g>
<defs>
<clipPath id="clip0_2_1578">
<rect width="10" height="12" fill="white"/>
</clipPath>
</defs>
</svg>
